# xmcd
#
# Track frame offsets:
#	187
#	13552
#	28845
#	41180
#	57547
#	70807
#	87107
#	101622
#	113472
#	128357
#
# Disc length: 1892 seconds
#
# Revision: 0
# Processed by: cddbd v1.5.2PL0 Copyright (c) Steve Scherf et al.
# Submitted via: audiograbber 1.83.01
#
DISCID=7a07620a
DTITLE=Sinatra, Frank - JV0019
DYEAR=1992
DGENRE=Karaoke
TTITLE0=Learnin' The Blues
TTITLE1=All The Way
TTITLE2=High Hopes
TTITLE3=I've Got You Under My Skin
TTITLE4=Talk To Me
TTITLE5=I'll Never Smile Again
TTITLE6=Night And Day
TTITLE7=Can I Steal A Little Love
TTITLE8=Flowers Mean Forgiveness
TTITLE9=Strangers In The Night
EXTD=
EXTT0=
EXTT1=
EXTT2=
EXTT3=
EXTT4=
EXTT5=
EXTT6=
EXTT7=
EXTT8=
EXTT9=
PLAYORDER=
